<svg xmlns="http://www.w3.org/2000/svg" viewBox="0 0 64 64">
  <defs>
    <linearGradient id="sun-grad" x1="0%" y1="0%" x2="100%" y2="100%">
      <stop offset="0%" stop-color="#FFD26C" />
      <stop offset="100%" stop-color="#FF8C00" />
    </linearGradient>
    <linearGradient id="cloud-grad" x1="0%" y1="0%" x2="0%" y2="100%">
      <stop offset="0%" stop-color="#FFFFFF" />
      <stop offset="100%" stop-color="#D2E4F9" />
    </linearGradient>
    <filter id="shadow" x="-10%" y="-10%" width="120%" height="120%">
      <feDropShadow dx="0" dy="2" stdDeviation="2" flood-color="#000000" flood-opacity="0.15" />
    </filter>
  </defs>
  <!-- Sun -->
  <circle cx="40" cy="24" r="12" fill="url(#sun-grad)" />
  <g stroke="url(#sun-grad)" stroke-width="3" stroke-linecap="round">
    <line x1="40" y1="6" x2="40" y2="9" />
    <line x1="40" y1="39" x2="40" y2="42" />
    <line x1="22" y1="24" x2="25" y2="24" />
    <line x1="55" y1="24" x2="58" y2="24" />
    <line x1="27.3" y1="11.3" x2="29.4" y2="13.4" />
    <line x1="50.6" y1="34.6" x2="52.7" y2="36.7" />
    <line x1="27.3" y1="36.7" x2="29.4" y2="34.6" />
    <line x1="50.6" y1="13.4" x2="52.7" y2="11.3" />
  </g>
  <!-- Cloud -->
  <path d="M46,44 C46,49.5 41.5,54 36,54 L20,54 C13.4,54 8,48.6 8,42 C8,36.2 12.1,31.4 17.6,30.3 C19.3,23.3 25.6,18 33,18 C41.3,18 48,24.7 48,33 C48,34 47.9,35 47.7,36 C51.3,37.3 54,40.8 54,45 C54,49.4 50.4,53 46,53" fill="url(#cloud-grad)" filter="url(#shadow)" />
</svg>